<svg width="38" height="38" viewBox="0 0 38 38" fill="none" xmlns="http://www.w3.org/2000/svg">
<path d="M2.46663 21.0653H14.8666C16.0033 21.0653 16.9333 20.1353 16.9333 18.9986V2.46529C16.9333 1.32862 16.0033 0.398621 14.8666 0.398621L2.46663 0.398621C1.32996 0.398621 0.399963 1.32862 0.399963 2.46529L0.399963 18.9986C0.399963 20.1353 1.32996 21.0653 2.46663 21.0653ZM2.46663 37.5986H14.8666C16.0033 37.5986 16.9333 36.6686 16.9333 35.5319L16.9333 27.2653C16.9333 26.1286 16.0033 25.1986 14.8666 25.1986H2.46663C1.32996 25.1986 0.399963 26.1286 0.399963 27.2653L0.399963 35.5319C0.399963 36.6686 1.32996 37.5986 2.46663 37.5986ZM23.1333 37.5986H35.5333C36.67 37.5986 37.6 36.6686 37.6 35.5319V18.9986C37.6 17.862 36.67 16.932 35.5333 16.932L23.1333 16.932C21.9966 16.932 21.0666 17.862 21.0666 18.9986L21.0666 35.5319C21.0666 36.6686 21.9966 37.5986 23.1333 37.5986ZM21.0666 2.46529V10.732C21.0666 11.8686 21.9966 12.7986 23.1333 12.7986H35.5333C36.67 12.7986 37.6 11.8686 37.6 10.732V2.46529C37.6 1.32862 36.67 0.398621 35.5333 0.398621L23.1333 0.398621C21.9966 0.398621 21.0666 1.32862 21.0666 2.46529Z" fill="black"/>
</svg>
