<svg width="40" height="47" viewBox="0 0 40 47" fill="none" xmlns="http://www.w3.org/2000/svg">
<path d="M13.5136 42.1335C12.5799 42.128 11.6732 41.819 10.9303 41.2533L6.9692 38.3063C6.05511 37.5936 5.44859 36.558 5.27421 35.4121C5.09983 34.2661 5.37083 33.097 6.03155 32.1446C6.38114 31.6284 6.60331 31.0367 6.67982 30.4179C6.75633 29.7992 6.68499 29.1712 6.47167 28.5853L6.35686 28.2792C6.20833 27.7489 5.93685 27.2612 5.56446 26.8556C5.19207 26.4499 4.72928 26.1378 4.21365 25.9446H3.90747C2.7897 25.5687 1.86532 24.7671 1.33507 23.7138C0.804811 22.6604 0.711493 21.4404 1.07538 20.3187L2.64451 15.3434C2.78896 14.7669 3.05489 14.228 3.42451 13.7627C3.79414 13.2973 4.25891 12.9164 4.78772 12.6452C5.28018 12.3915 5.81901 12.2403 6.37159 12.2008C6.92417 12.1614 7.47901 12.2344 8.00254 12.4156C8.57256 12.6074 9.18081 12.6572 9.77443 12.5605C10.368 12.4637 10.9291 12.2235 11.4087 11.8607L11.6575 11.6693C12.0917 11.3229 12.4426 10.8834 12.6843 10.3833C12.9261 9.88322 13.0526 9.33525 13.0544 8.7798V8.32054C13.0492 7.14968 13.5069 6.02419 14.3276 5.18912C15.1483 4.35405 16.2657 3.87702 17.4365 3.86189H22.3161C22.8858 3.86343 23.4495 3.97748 23.9749 4.1975C24.5003 4.41753 24.9771 4.73918 25.3779 5.14399C26.2204 6.00088 26.6884 7.15713 26.6791 8.35881V8.89461C26.6694 9.42228 26.7838 9.94485 27.0132 10.4202C27.2425 10.8955 27.5804 11.3103 27.9995 11.631L28.21 11.7841C28.6394 12.1062 29.1404 12.3196 29.6702 12.4062C30.2 12.4929 30.7428 12.4501 31.2525 12.2816L31.9032 12.0712C32.4544 11.8884 33.0368 11.8186 33.6156 11.8658C34.1944 11.913 34.7578 12.0764 35.2721 12.346C35.7864 12.6157 36.2412 12.9862 36.6092 13.4354C36.9772 13.8846 37.251 14.4033 37.4143 14.9607L38.926 19.7829C39.2758 20.8973 39.1802 22.104 38.6592 23.1494C38.1383 24.1949 37.2325 24.9978 36.1322 25.3897L35.7495 25.5236C35.1866 25.7079 34.6775 26.0277 34.2671 26.4548C33.8567 26.8819 33.5575 27.4032 33.3958 27.973C33.2434 28.5027 33.2073 29.059 33.2899 29.604C33.3725 30.1489 33.5718 30.6696 33.8741 31.1304L34.3717 31.8576C35.0315 32.8152 35.2999 33.989 35.122 35.1382C34.9441 36.2875 34.3334 37.3251 33.4149 38.0384L29.5686 41.0045C29.1039 41.3599 28.5714 41.6163 28.0039 41.7582C27.4363 41.9 26.8458 41.9241 26.2685 41.8291C25.6913 41.7341 25.1396 41.522 24.6475 41.2057C24.1553 40.8895 23.7331 40.4758 23.4069 39.9903L23.1772 39.665C22.8638 39.194 22.4362 38.8101 21.9343 38.5491C21.4323 38.288 20.8724 38.1585 20.3069 38.1724C19.7672 38.1864 19.2384 38.327 18.763 38.5829C18.2877 38.8389 17.8792 39.203 17.5704 39.6458L17.1303 40.2773C16.8039 40.7663 16.3809 41.1832 15.8872 41.5025C15.3936 41.8217 14.8398 42.0365 14.2599 42.1335C14.0118 42.1578 13.7618 42.1578 13.5136 42.1335ZM5.45748 22.2705C6.53806 22.6559 7.51309 23.2895 8.30412 24.1204C9.09514 24.9513 9.68006 25.9563 10.0118 27.0545V27.2841C10.425 28.4258 10.5607 29.6494 10.4076 30.8539C10.2546 32.0584 9.81717 33.2092 9.13155 34.2113C9.01053 34.345 8.94351 34.5189 8.94351 34.6992C8.94351 34.8796 9.01053 35.0535 9.13155 35.1872L13.2457 38.3063C13.2994 38.3485 13.3615 38.3787 13.4278 38.3949C13.4941 38.4111 13.5631 38.4129 13.6302 38.4002C13.6973 38.3875 13.7608 38.3606 13.8166 38.3213C13.8724 38.282 13.9192 38.2312 13.9538 38.1724L14.3939 37.5409C15.0577 36.5818 15.9442 35.7979 16.9773 35.2564C18.0105 34.715 19.1596 34.4322 20.326 34.4322C21.4924 34.4322 22.6415 34.715 23.6747 35.2564C24.7078 35.7979 25.5943 36.5818 26.2581 37.5409L26.4877 37.8853C26.57 38.0021 26.6928 38.0839 26.8322 38.115C26.8961 38.1244 26.9613 38.1208 27.0238 38.1044C27.0862 38.0879 27.1448 38.059 27.1958 38.0193L31.1377 35.0341C31.2757 34.9246 31.3665 34.7664 31.3914 34.592C31.4163 34.4176 31.3735 34.2402 31.2717 34.0965L30.7741 33.3693C30.1259 32.424 29.6982 31.3452 29.5226 30.2124C29.3471 29.0797 29.4282 27.922 29.76 26.8249C30.0962 25.6717 30.7046 24.6161 31.5337 23.747C32.3629 22.8779 33.3887 22.2206 34.5248 21.8304L34.9075 21.6965C35.067 21.6326 35.1947 21.5082 35.2629 21.3504C35.331 21.1927 35.3339 21.0144 35.2711 20.8545L33.7785 16.0897C33.7426 16.0063 33.6902 15.9311 33.6244 15.8686C33.5587 15.8061 33.4808 15.7576 33.3958 15.7261C33.3394 15.6975 33.2771 15.6826 33.214 15.6826C33.1508 15.6826 33.0885 15.6975 33.0322 15.7261L32.3816 15.9366C31.281 16.2998 30.1086 16.3903 28.9653 16.2003C27.822 16.0103 26.7419 15.5455 25.818 14.8458L25.7414 14.6736C24.8548 14.0022 24.1359 13.1344 23.6412 12.1383C23.1465 11.1422 22.8894 10.045 22.8902 8.93288V8.33967C22.8937 8.15523 22.825 7.97672 22.6988 7.84214C22.5887 7.74265 22.4454 7.68803 22.297 7.68905H17.4365C17.3585 7.69392 17.2823 7.71414 17.2122 7.74854C17.1421 7.78294 17.0794 7.83085 17.0279 7.88953C16.9763 7.9482 16.9368 8.01648 16.9117 8.09044C16.8866 8.16441 16.8764 8.2426 16.8816 8.32054V8.79893C16.8817 9.94141 16.6195 11.0687 16.1152 12.0938C15.6109 13.119 14.878 14.0147 13.9729 14.7119L13.7241 14.9033C12.7477 15.6467 11.6034 16.1385 10.392 16.3354C9.18066 16.5323 7.93948 16.4282 6.77785 16.0323C6.69093 16.0031 6.59686 16.0031 6.50994 16.0323C6.40195 16.0979 6.32062 16.1995 6.28031 16.3193L4.69204 21.3137C4.63668 21.4838 4.64965 21.6688 4.72822 21.8295C4.80679 21.9902 4.94479 22.1141 5.11303 22.1749L5.45748 22.2705Z" fill="black"/>
<path d="M20.0002 29.7015C18.6756 29.7015 17.3807 29.3087 16.2793 28.5728C15.1779 27.8368 14.3194 26.7908 13.8125 25.567C13.3056 24.3432 13.1729 22.9966 13.4314 21.6974C13.6898 20.3982 14.3277 19.2048 15.2643 18.2681C16.201 17.3314 17.3944 16.6936 18.6936 16.4351C19.9928 16.1767 21.3394 16.3094 22.5632 16.8163C23.7871 17.3232 24.8331 18.1816 25.569 19.283C26.3049 20.3844 26.6977 21.6793 26.6977 23.004C26.6977 24.7803 25.9921 26.4838 24.7361 27.7399C23.48 28.9959 21.7765 29.7015 20.0002 29.7015ZM20.0002 20.1336C19.4325 20.1336 18.8775 20.302 18.4055 20.6174C17.9335 20.9328 17.5656 21.381 17.3483 21.9055C17.1311 22.43 17.0742 23.0072 17.185 23.564C17.2957 24.1208 17.5691 24.6322 17.9705 25.0336C18.372 25.4351 18.8834 25.7084 19.4402 25.8192C19.997 25.93 20.5742 25.8731 21.0986 25.6559C21.6231 25.4386 22.0714 25.0707 22.3868 24.5987C22.7022 24.1266 22.8706 23.5717 22.8706 23.004C22.8706 22.2427 22.5682 21.5126 22.0299 20.9743C21.4916 20.436 20.7615 20.1336 20.0002 20.1336Z" fill="black"/>
</svg>
