<svg width="24" height="22" viewBox="0 0 24 22" fill="none" xmlns="http://www.w3.org/2000/svg">
<path d="M6 16.4237C6 16.6949 5.89844 16.9407 5.69531 17.161C5.49219 17.3814 5.26563 17.4915 5.01562 17.4915C4.73438 17.4915 4.49219 17.3814 4.28906 17.161C4.08594 16.9407 3.98438 16.6949 3.98438 16.4237C3.98438 16.1186 4.08594 15.8559 4.28906 15.6356C4.49219 15.4153 4.73438 15.3051 5.01562 15.3051C5.26563 15.3051 5.49219 15.4153 5.69531 15.6356C5.89844 15.8559 6 16.1186 6 16.4237ZM21.9844 1.22034H9V1.32203C7.6875 1.69491 6.6875 2.38983 6 3.40678C5.75 3.40678 5.53906 3.22881 5.36719 2.87288C5.19531 2.51695 5.09375 2.15254 5.0625 1.77966L5.01562 1.22034H3C3 2.0339 3.17187 2.86441 3.51562 3.71186C3.85938 4.55932 4.39063 5.13559 5.10938 5.44068C5.10938 5.50847 5.09375 5.61017 5.0625 5.74576C5.03125 5.88136 5.01562 5.9661 5.01562 6C3.57813 6.71186 2.57812 7.8983 2.01562 9.55932C1.60937 10.7797 1.23438 12.1271 0.890625 13.6017C0.546875 15.0763 0.3125 16.2203 0.1875 17.0339C0.0625 17.8475 0 18.322 0 18.4576C0 19.4746 0.203125 20.2373 0.609375 20.7458C1.07812 21.4576 1.875 21.8136 3 21.8136H6C6.90625 21.8136 7.63281 21.5169 8.17969 20.9237C8.72656 20.3305 9 19.5424 9 18.5593C9 17.7458 9.0625 16.661 9.1875 15.3051H11.0156C11.9219 15.3051 12.7344 15 13.4531 14.3898C14.1719 13.7797 14.6562 13 14.9062 12.0508H15.9844C17.5781 12.0508 18.7187 11.339 19.4062 9.91525H21.5156C21.8281 9.91525 21.9844 9.72881 21.9844 9.35593C21.9844 8.98305 21.8281 8.79661 21.5156 8.79661H19.9219C19.9219 8.69491 19.9375 8.51695 19.9688 8.26271C20 8.00847 20.0156 7.83051 20.0156 7.72881H24V0.152542H23.0156C22.3281 0.152542 21.9844 0.508474 21.9844 1.22034ZM9 3.61017V9.66102C8.40625 9.45763 7.92188 9.07627 7.54688 8.51695C7.17188 7.95763 6.98438 7.33898 6.98438 6.66102C6.98438 5.94915 7.17188 5.31356 7.54688 4.75424C7.92188 4.19491 8.40625 3.81356 9 3.61017ZM6 19.678H3C2.53125 19.678 2.23438 19.5932 2.10938 19.4237C2.04687 19.2881 2.01562 19.0339 2.01562 18.661C2.39062 15.6441 3.01563 12.8305 3.89062 10.2203C4.20312 9.37288 4.64062 8.72881 5.20312 8.28813C5.57812 9.67796 6.40625 10.7288 7.6875 11.4407C7.21875 14.6271 6.98438 17 6.98438 18.5593C6.98438 19.3051 6.65625 19.678 6 19.678ZM11.0156 13.1695H9.51562C9.64063 12.5593 9.70312 12.1864 9.70312 12.0508H12.7031C12.3906 12.7966 11.8281 13.1695 11.0156 13.1695ZM15.9844 9.91525H11.0156V3.40678H18V4.47458H13.5C13.1562 4.47458 12.9844 4.66102 12.9844 5.0339C12.9844 5.37288 13.1562 5.54237 13.5 5.54237H18V6.66102H13.5C13.1562 6.66102 12.9844 6.83051 12.9844 7.16949C12.9844 7.54237 13.1562 7.72881 13.5 7.72881H18C18 8.30508 17.8047 8.81356 17.4141 9.25424C17.0234 9.69491 16.5469 9.91525 15.9844 9.91525ZM21.9844 5.54237H20.0156V3.40678H21.9844V5.54237Z" fill="#1C1C1C"/>
</svg>
