<svg width="20" height="20" viewBox="0 0 20 20" fill="none" xmlns="http://www.w3.org/2000/svg">
<path d="M10 0.25C4.624 0.25 0.25 4.624 0.25 10C0.25 15.376 4.624 19.75 10 19.75C15.376 19.75 19.75 15.376 19.75 10C19.75 4.624 15.376 0.25 10 0.25ZM9.15625 1.79725C9.18625 1.7935 9.21925 1.7995 9.25 1.79725V2.5H10.75V1.7965C12.669 1.96818 14.4667 2.80859 15.829 4.17095C17.1914 5.53331 18.0318 7.331 18.2035 9.25H17.5V10.75H18.2035C18.0318 12.669 17.1914 14.4667 15.829 15.829C14.4667 17.1914 12.669 18.0318 10.75 18.2035V17.5H9.25V18.2035C7.331 18.0318 5.53331 17.1914 4.17095 15.829C2.80859 14.4667 1.96818 12.669 1.7965 10.75H2.5V9.25H1.7965C2.1505 5.31775 5.23675 2.1925 9.15625 1.7965V1.79725ZM14.5712 5.4295L8.19625 8.1955L5.42875 14.5705L11.8038 11.8045L14.5712 5.4295V5.4295ZM10 8.875C10.6 8.875 11.125 9.4 11.125 10C11.125 10.6 10.6 11.125 10 11.125C9.4 11.125 8.875 10.6 8.875 10C8.875 9.4 9.4 8.875 10 8.875Z" fill="#1C1C1C"/>
</svg>
