<svg width="20" height="20" viewBox="0 0 20 20" fill="none" xmlns="http://www.w3.org/2000/svg">
<path d="M10 0.25C4.624 0.25 0.25 4.624 0.25 10C0.25 15.376 4.624 19.75 10 19.75C15.376 19.75 19.75 15.376 19.75 10C19.75 4.624 15.376 0.25 10 0.25ZM10 1.75C14.5487 1.75 18.25 5.45125 18.25 10C18.25 14.5487 14.5487 18.25 10 18.25C5.45125 18.25 1.75 14.5487 1.75 10C1.75 5.45125 5.45125 1.75 10 1.75ZM5.54125 6.376L4.70875 7.624L6.02275 8.5L4.70875 9.376L5.54125 10.624L8.72725 8.5L5.54125 6.376ZM14.4587 6.376L11.2728 8.5L14.4587 10.624L15.2913 9.376L13.9772 8.5L15.2913 7.624L14.4587 6.376ZM4.75 12.25C4.75 12.25 5.95375 16 10 16C14.0463 16 15.25 12.25 15.25 12.25H4.75Z" fill="#1C1C1C"/>
</svg>
