<svg width="22" height="22" viewBox="0 0 22 22" fill="none" xmlns="http://www.w3.org/2000/svg">
<path d="M3.342 0.408005L21.373 18.44C21.6544 18.7213 21.8125 19.1028 21.8126 19.5007C21.8127 19.8985 21.6548 20.2801 21.3735 20.5615C21.0922 20.8429 20.7107 21.001 20.3129 21.0011C19.915 21.0012 19.5334 20.8433 19.252 20.562L14.656 15.965L11.12 19.5L3.342 11.722C1.87207 10.2523 1.03191 8.26814 0.999436 6.18975C0.966958 4.11136 1.74471 2.10194 3.168 0.587005L3.342 0.408005ZM3.583 3.478L3.532 3.588C3.04709 4.66006 2.88781 5.85096 3.07395 7.01276C3.26009 8.17457 3.78344 9.2561 4.579 10.123L4.756 10.308L11.119 16.671L13.948 13.843L3.583 3.478Z" fill="#1C1C1C"/>
</svg>
