<svg width="21" height="20" viewBox="0 0 21 20" fill="none" xmlns="http://www.w3.org/2000/svg">
<path d="M6.11 17.45C5.00432 17.0428 4.02036 16.361 3.25066 15.4689C2.48096 14.5767 1.95079 13.5034 1.71 12.35L0.0500016 4.54001C-0.189998 3.46001 0.500002 2.40001 1.58 2.17001L11.35 0.100006L11.38 0.0900064C12.45 -0.119994 13.5 0.570007 13.72 1.63001L14.07 3.30001L18.42 4.23001H18.45C19.5 4.47001 20.18 5.53001 19.96 6.59001L18.3 14.41C18.1084 15.3083 17.7417 16.1601 17.2209 16.9166C16.7 17.6732 16.0352 18.3198 15.2645 18.8194C14.4937 19.319 13.6321 19.6618 12.7288 19.8284C11.8255 19.9949 10.8983 19.9819 10 19.79C8.47617 19.472 7.105 18.6472 6.11 17.45ZM18 6.18001L8.23 4.10001L6.57 11.92V11.95C6 14.63 7.73 17.27 10.42 17.84C13.11 18.41 15.77 16.69 16.34 14L18 6.18001ZM14 14.5C13.6841 15.0348 13.208 15.4568 12.6392 15.7062C12.0703 15.9557 11.4374 16.02 10.83 15.89C10.2245 15.7604 9.67454 15.4451 9.25685 14.9879C8.83916 14.5308 8.57457 13.9547 8.5 13.34L14 14.5ZM6.47 3.17001L2 4.13001L3.66 11.94L3.67 11.97C3.82 12.68 4.12 13.32 4.53 13.87C4.43 13.1 4.45 12.3 4.62 11.5L5.05 9.50001C4.6 9.42001 4.21 9.17001 4 8.81001C4.06 8.20001 4.56 7.66001 5.25 7.50001H5.5L6.28 3.69001C6.32 3.50001 6.38 3.33001 6.47 3.17001ZM13.03 10.23C13.35 9.70001 14.03 9.42001 14.72 9.57001C15.41 9.71001 15.91 10.24 16 10.86C15.67 11.38 15 11.66 14.3 11.5C13.61 11.37 13.11 10.84 13.03 10.23ZM8.15 9.19001C8.47 8.66001 9.14 8.38001 9.83 8.53001C10.5 8.67001 11.03 9.21001 11.11 9.82001C10.78 10.34 10.11 10.63 9.42 10.5C8.73 10.33 8.23 9.80001 8.15 9.19001ZM9.97 2.43001L11.93 2.85001L11.77 2.05001L9.97 2.43001Z" fill="#1C1C1C"/>
</svg>
