<svg width="18" height="20" viewBox="0 0 18 20" fill="none" xmlns="http://www.w3.org/2000/svg">
<path d="M9 0C4.037 0 0 4.038 0 9V17H0.0510001C0.296 18.691 1.741 20 3.5 20C4.674 20 5.574 19.583 6.172 18.826C6.54388 19.1994 6.98605 19.4954 7.47298 19.697C7.9599 19.8985 8.48193 20.0016 9.00892 20.0003C9.53591 19.999 10.0574 19.8934 10.5433 19.6894C11.0293 19.4854 11.47 19.1872 11.84 18.812C12.441 19.574 13.344 20 14.5 20C16.43 20 18 18.43 18 16.5V9C18 4.038 13.963 0 9 0ZM16 16.5C16 17.327 15.327 18 14.5 18C14.051 18 13 18 13 16V15H11V16C11 17.103 10.103 18 9 18C7.897 18 7 17.103 7 16V15H5V16C5 17.845 4.226 18 3.5 18C2.673 18 2 17.327 2 16.5V9C2 5.14 5.141 2 9 2C12.859 2 16 5.14 16 9V16.5Z" fill="#1C1C1C"/>
</svg>
