<svg width="17" height="17" viewBox="0 0 17 17" fill="none" xmlns="http://www.w3.org/2000/svg">
<path fill-rule="evenodd" clip-rule="evenodd" d="M11.468 10.692C12.4594 9.52043 13.0024 8.03475 13 6.5C13 2.91 10.09 0 6.5 0C2.91 0 0 2.91 0 6.5C0 10.09 2.91 13 6.5 13C8.0975 13 9.56 12.424 10.692 11.468L10.5 12.572L14.257 16.329L16.329 14.257L12.572 10.5L11.468 10.692ZM6.5 11.5C9.2615 11.5 11.5 9.2615 11.5 6.5C11.5 3.7385 9.2615 1.5 6.5 1.5C3.7385 1.5 1.5 3.7385 1.5 6.5C1.5 9.2615 3.7385 11.5 6.5 11.5Z" fill="#1C1C1C"/>
</svg>
