<svg width="18" height="21" viewBox="0 0 18 21" fill="none" xmlns="http://www.w3.org/2000/svg">
<path d="M10 9L15.949 18.516C15.9787 18.5639 15.9951 18.6189 15.9965 18.6752C15.9978 18.7316 15.9842 18.7873 15.9569 18.8366C15.9296 18.8859 15.8896 18.927 15.8411 18.9557C15.7926 18.9845 15.7374 18.9997 15.681 19H2.319C2.26235 18.9997 2.2068 18.9843 2.15815 18.9552C2.1095 18.9262 2.06951 18.8847 2.04235 18.835C2.0152 18.7852 2.00186 18.7292 2.00373 18.6725C2.0056 18.6159 2.02262 18.5608 2.053 18.513L8 9V2H10V9ZM4 0V2H6V8.46L0.359 17.45C0.139055 17.8005 0.0169602 18.2036 0.00539543 18.6172C-0.00616932 19.0309 0.0932173 19.4401 0.293235 19.8024C0.493252 20.1647 0.786606 20.4668 1.14283 20.6774C1.49906 20.888 1.90518 20.9994 2.319 21H15.681C16.0948 20.9994 16.5009 20.888 16.8572 20.6774C17.2134 20.4668 17.5067 20.1647 17.7068 19.8024C17.9068 19.4401 18.0062 19.0309 17.9946 18.6172C17.983 18.2036 17.8609 17.8005 17.641 17.45L12.001 8.46L12 2H14V0H4Z" fill="#1C1C1C"/>
</svg>
