<svg width="19" height="24" viewBox="0 0 19 24" fill="none" xmlns="http://www.w3.org/2000/svg">
<path d="M10.98 23.4795C10.8407 23.2992 10.7548 23.0834 10.7319 22.8567C10.7091 22.63 10.7504 22.4014 10.851 22.197C11.115 21.684 11.2185 21.0975 11.151 20.52C11.0957 20.1079 10.9596 19.7108 10.7505 19.3515C10.5441 18.9968 10.2681 18.6876 9.939 18.4425C8.81751 17.5996 8.03054 16.387 7.7175 15.0195C5.1555 18.378 6.138 20.2845 7.365 21.9645C7.50887 22.1614 7.58464 22.3999 7.58085 22.6438C7.57706 22.8876 7.49392 23.1236 7.344 23.316C7.19123 23.5107 6.98626 23.6579 6.753 23.7405C6.52243 23.8214 6.27327 23.8334 6.036 23.775C4.3785 23.37 2.8185 22.599 1.761 21.3705C1.16155 20.6881 0.700042 19.896 0.402001 19.038C0.100564 18.1727 -0.0333207 17.2579 0.00750087 16.3425C0.00750087 16.3425 -0.191999 12.648 4.263 9.0285C4.263 9.0285 9.528 4.5615 7.701 1.2585C7.63368 1.09602 7.61373 0.917809 7.64346 0.744471C7.67319 0.571133 7.75139 0.409753 7.869 0.278997C7.98332 0.150796 8.13431 0.0608705 8.30149 0.0214243C8.46867 -0.018022 8.64393 -0.00507906 8.8035 0.0584966L9.0225 0.145497C11.0056 1.39906 12.5556 3.23179 13.4625 5.3955C14.3325 7.515 14.3265 9.9855 13.7385 12.186C14.226 11.748 14.6325 11.2245 14.94 10.6365L14.9835 10.5405C15.2805 9.825 16.215 10.053 16.566 10.521C16.695 10.7265 20.004 15.5355 18.2265 19.593C17.5766 20.8223 16.6274 21.868 15.4665 22.6335C14.4924 23.2799 13.404 23.7345 12.2595 23.973C12.023 24.0228 11.777 24.003 11.5515 23.916C11.3239 23.8275 11.1259 23.6768 10.98 23.481V23.4795ZM8.331 11.838C8.47105 11.765 8.63333 11.747 8.78597 11.7875C8.93861 11.828 9.07059 11.9242 9.156 12.057C9.216 12.1455 9.255 12.246 9.2685 12.354L9.336 12.8775C9.366 13.644 9.357 14.445 9.6555 15.1815C9.9645 15.9375 10.4445 16.6065 11.0535 17.1285C11.8381 17.6447 12.4454 18.3892 12.7935 19.2615C13.1235 20.1075 13.1685 21.0465 12.9195 21.921C13.6813 21.6807 14.3894 21.2951 15.0045 20.7855L15.159 20.6595C15.663 20.244 16.0785 19.725 16.3785 19.134C16.68 18.5445 16.8615 17.8965 16.9095 17.2305C17.007 15.693 16.4835 14.1495 15.669 12.7725C15.297 13.3125 14.784 13.731 14.1915 13.9785C13.821 14.136 13.428 14.2335 13.0275 14.2635C12.7981 14.2783 12.5694 14.2262 12.369 14.1135C12.1655 13.9979 11.9987 13.8274 11.8875 13.6215C11.7955 13.4555 11.7429 13.2705 11.7338 13.0809C11.7247 12.8913 11.7593 12.7021 11.835 12.528C12.453 11.07 12.645 9.453 12.3825 7.8825C12.0718 6.0857 11.2112 4.42957 9.9195 3.1425C9.6855 6.45 6.294 9.5295 5.598 10.1925C5.49011 10.2941 5.37802 10.3912 5.262 10.4835C1.623 13.431 1.872 16.116 1.872 16.2345C1.79974 17.3011 2.03893 18.3658 2.5605 19.299C3.108 20.2665 3.8955 21.0645 4.8405 21.609C3.75 19.212 3.75 16.335 7.7745 12.21L8.3325 11.835L8.331 11.838Z" fill="#1C1C1C"/>
</svg>
